<svg id="visual" viewBox="0 0 1920 1080" width="1920" height="1080" xmlns="http://www.w3.org/2000/svg" xmlns:xlink="http://www.w3.org/1999/xlink" version="1.1"><rect x="0" y="0" width="1920" height="1080" fill="#222"></rect><path d="M0 727L320 666L640 760L960 728L1280 792L1600 807L1920 736L1920 1081L1600 1081L1280 1081L960 1081L640 1081L320 1081L0 1081Z" fill="#ff8906"></path><path d="M0 829L320 779L640 788L960 822L1280 817L1600 745L1920 716L1920 1081L1600 1081L1280 1081L960 1081L640 1081L320 1081L0 1081Z" fill="#ff7d24"></path><path d="M0 816L320 811L640 823L960 893L1280 850L1600 876L1920 868L1920 1081L1600 1081L1280 1081L960 1081L640 1081L320 1081L0 1081Z" fill="#fd7234"></path><path d="M0 907L320 921L640 946L960 946L1280 937L1600 874L1920 950L1920 1081L1600 1081L1280 1081L960 1081L640 1081L320 1081L0 1081Z" fill="#f86841"></path><path d="M0 977L320 1030L640 951L960 1018L1280 968L1600 961L1920 984L1920 1081L1600 1081L1280 1081L960 1081L640 1081L320 1081L0 1081Z" fill="#f25f4c"></path></svg>